<svg xmlns="http://www.w3.org/2000/svg" viewBox="0 0 1024 1024" width="1024" height="1024">
<rect width="1024" height="1024" fill="#FFFFFF" rx="64" />
<g transform="rotate(0 512 512)">
<circle cx="512" cy="512" r="454.72" fill="none" stroke="#0F172A" stroke-width="18.56" />
<circle cx="976.00" cy="512.00" r="6.96" fill="#FFFFFF" />
<circle cx="512.00" cy="976.00" r="6.96" fill="#FFFFFF" />
<circle cx="48.00" cy="512.00" r="6.96" fill="#FFFFFF" />
<circle cx="512.00" cy="48.00" r="6.96" fill="#FFFFFF" />
<circle cx="512" cy="512" r="78.88" fill="none" stroke="#0F172A" stroke-width="27.84" />
<circle cx="512" cy="512" r="37.12" fill="#0F172A" />
<path d="M 494.368 492.6048 H 529.632 L 497.8944 531.3952 H 529.632" stroke="#FFFFFF" stroke-width="9.87" stroke-linecap="round" stroke-linejoin="round" fill="none" />
<circle cx="637.28" cy="512.00" r="7.42" fill="#0F172A" />
<circle cx="634.87" cy="536.44" r="7.42" fill="#0F172A" />
<circle cx="627.74" cy="559.94" r="7.42" fill="#0F172A" />
<circle cx="616.17" cy="581.60" r="7.42" fill="#0F172A" />
<circle cx="600.59" cy="600.59" r="7.42" fill="#0F172A" />
<circle cx="536.44" cy="634.87" r="7.42" fill="#0F172A" />
<circle cx="512.00" cy="637.28" r="7.42" fill="#0F172A" />
<circle cx="464.06" cy="627.74" r="7.42" fill="#0F172A" />
<circle cx="423.41" cy="600.59" r="7.42" fill="#0F172A" />
<circle cx="386.72" cy="512.00" r="7.42" fill="#0F172A" />
<circle cx="407.83" cy="442.40" r="7.42" fill="#0F172A" />
<circle cx="442.40" cy="407.83" r="7.42" fill="#0F172A" />
<circle cx="464.06" cy="396.26" r="7.42" fill="#0F172A" />
<circle cx="487.56" cy="389.13" r="7.42" fill="#0F172A" />
<circle cx="581.60" cy="407.83" r="7.42" fill="#0F172A" />
<circle cx="600.59" cy="423.41" r="7.42" fill="#0F172A" />
<polygon points="610.6464,505.3184 634.4032,512 610.6464,518.6816" fill="#0F172A" />
<circle cx="666.73" cy="542.78" r="11.14" fill="#0F172A" />
<circle cx="643.17" cy="599.65" r="11.14" fill="#0F172A" />
<circle cx="623.55" cy="623.55" r="11.14" fill="#0F172A" />
<circle cx="572.37" cy="657.75" r="11.14" fill="#0F172A" />
<circle cx="481.22" cy="666.73" r="11.14" fill="#0F172A" />
<circle cx="366.25" cy="572.37" r="11.14" fill="#0F172A" />
<circle cx="357.27" cy="542.78" r="11.14" fill="#0F172A" />
<circle cx="481.22" cy="357.27" r="11.14" fill="#0F172A" />
<circle cx="666.73" cy="481.22" r="11.14" fill="#0F172A" />
<circle cx="450.34" cy="701.75" r="11.14" fill="#0F172A" />
<circle cx="394.73" cy="673.42" r="11.14" fill="#0F172A" />
<circle cx="370.92" cy="653.08" r="11.14" fill="#0F172A" />
<circle cx="334.23" cy="602.58" r="11.14" fill="#0F172A" />
<circle cx="312.48" cy="512.00" r="11.14" fill="#0F172A" />
<circle cx="370.92" cy="370.92" r="11.14" fill="#0F172A" />
<circle cx="394.73" cy="350.58" r="11.14" fill="#0F172A" />
<circle cx="480.79" cy="314.94" r="11.14" fill="#0F172A" />
<circle cx="543.21" cy="314.94" r="11.14" fill="#0F172A" />
<circle cx="602.58" cy="334.23" r="11.14" fill="#0F172A" />
<circle cx="629.27" cy="350.58" r="11.14" fill="#0F172A" />
<circle cx="673.42" cy="394.73" r="11.14" fill="#0F172A" />
<circle cx="689.77" cy="421.42" r="11.14" fill="#0F172A" />
<circle cx="751.22" cy="543.49" r="11.14" fill="#0F172A" />
<circle cx="745.06" cy="574.45" r="11.14" fill="#0F172A" />
<circle cx="720.95" cy="632.64" r="11.14" fill="#0F172A" />
<circle cx="703.42" cy="658.88" r="11.14" fill="#0F172A" />
<circle cx="604.33" cy="734.91" r="11.14" fill="#0F172A" />
<circle cx="574.45" cy="745.06" r="11.14" fill="#0F172A" />
<circle cx="512.00" cy="753.28" r="11.14" fill="#0F172A" />
<circle cx="480.51" cy="751.22" r="11.14" fill="#0F172A" />
<circle cx="449.55" cy="745.06" r="11.14" fill="#0F172A" />
<circle cx="419.67" cy="734.91" r="11.14" fill="#0F172A" />
<circle cx="341.39" cy="682.61" r="11.14" fill="#0F172A" />
<circle cx="272.78" cy="480.51" r="11.14" fill="#0F172A" />
<circle cx="289.09" cy="419.67" r="11.14" fill="#0F172A" />
<circle cx="303.05" cy="391.36" r="11.14" fill="#0F172A" />
<circle cx="341.39" cy="341.39" r="11.14" fill="#0F172A" />
<circle cx="419.67" cy="289.09" r="11.14" fill="#0F172A" />
<circle cx="449.55" cy="278.94" r="11.14" fill="#0F172A" />
<circle cx="512.00" cy="270.72" r="11.14" fill="#0F172A" />
<circle cx="604.33" cy="289.09" r="11.14" fill="#0F172A" />
<circle cx="658.88" cy="320.58" r="11.14" fill="#0F172A" />
<circle cx="682.61" cy="341.39" r="11.14" fill="#0F172A" />
<circle cx="720.95" cy="391.36" r="11.14" fill="#0F172A" />
<circle cx="793.26" cy="543.69" r="11.14" fill="#0F172A" />
<circle cx="787.94" cy="574.98" r="11.14" fill="#0F172A" />
<circle cx="712.14" cy="712.14" r="11.14" fill="#0F172A" />
<circle cx="662.59" cy="751.66" r="11.14" fill="#0F172A" />
<circle cx="634.81" cy="767.01" r="11.14" fill="#0F172A" />
<circle cx="574.98" cy="787.94" r="11.14" fill="#0F172A" />
<circle cx="543.69" cy="793.26" r="11.14" fill="#0F172A" />
<circle cx="512.00" cy="795.04" r="11.14" fill="#0F172A" />
<circle cx="418.52" cy="779.16" r="11.14" fill="#0F172A" />
<circle cx="361.41" cy="751.66" r="11.14" fill="#0F172A" />
<circle cx="311.86" cy="712.14" r="11.14" fill="#0F172A" />
<circle cx="272.34" cy="662.59" r="11.14" fill="#0F172A" />
<circle cx="256.99" cy="634.81" r="11.14" fill="#0F172A" />
<circle cx="236.06" cy="574.98" r="11.14" fill="#0F172A" />
<circle cx="228.96" cy="512.00" r="11.14" fill="#0F172A" />
<circle cx="236.06" cy="449.02" r="11.14" fill="#0F172A" />
<circle cx="272.34" cy="361.41" r="11.14" fill="#0F172A" />
<circle cx="311.86" cy="311.86" r="11.14" fill="#0F172A" />
<circle cx="361.41" cy="272.34" r="11.14" fill="#0F172A" />
<circle cx="418.52" cy="244.84" r="11.14" fill="#0F172A" />
<circle cx="449.02" cy="236.06" r="11.14" fill="#0F172A" />
<circle cx="512.00" cy="228.96" r="11.14" fill="#0F172A" />
<circle cx="574.98" cy="236.06" r="11.14" fill="#0F172A" />
<circle cx="634.81" cy="256.99" r="11.14" fill="#0F172A" />
<circle cx="712.14" cy="311.86" r="11.14" fill="#0F172A" />
<circle cx="751.66" cy="361.41" r="11.14" fill="#0F172A" />
<circle cx="779.16" cy="418.52" r="11.14" fill="#0F172A" />
<circle cx="793.26" cy="480.31" r="11.14" fill="#0F172A" />
<circle cx="836.80" cy="512.00" r="11.14" fill="#0F172A" />
<circle cx="830.56" cy="575.37" r="11.14" fill="#0F172A" />
<circle cx="812.08" cy="636.30" r="11.14" fill="#0F172A" />
<circle cx="782.06" cy="692.45" r="11.14" fill="#0F172A" />
<circle cx="718.05" cy="763.07" r="11.14" fill="#0F172A" />
<circle cx="665.11" cy="798.45" r="11.14" fill="#0F172A" />
<circle cx="606.28" cy="822.81" r="11.14" fill="#0F172A" />
<circle cx="543.84" cy="835.24" r="11.14" fill="#0F172A" />
<circle cx="512.00" cy="836.80" r="11.14" fill="#0F172A" />
<circle cx="448.63" cy="830.56" r="11.14" fill="#0F172A" />
<circle cx="387.70" cy="812.08" r="11.14" fill="#0F172A" />
<circle cx="331.55" cy="782.06" r="11.14" fill="#0F172A" />
<circle cx="260.93" cy="718.05" r="11.14" fill="#0F172A" />
<circle cx="225.55" cy="665.11" r="11.14" fill="#0F172A" />
<circle cx="201.19" cy="606.28" r="11.14" fill="#0F172A" />
<circle cx="188.76" cy="543.84" r="11.14" fill="#0F172A" />
<circle cx="187.20" cy="512.00" r="11.14" fill="#0F172A" />
<circle cx="193.44" cy="448.63" r="11.14" fill="#0F172A" />
<circle cx="211.92" cy="387.70" r="11.14" fill="#0F172A" />
<circle cx="241.94" cy="331.55" r="11.14" fill="#0F172A" />
<circle cx="305.95" cy="260.93" r="11.14" fill="#0F172A" />
<circle cx="358.89" cy="225.55" r="11.14" fill="#0F172A" />
<circle cx="417.72" cy="201.19" r="11.14" fill="#0F172A" />
<circle cx="480.16" cy="188.76" r="11.14" fill="#0F172A" />
<circle cx="512.00" cy="187.20" r="11.14" fill="#0F172A" />
<circle cx="575.37" cy="193.44" r="11.14" fill="#0F172A" />
<circle cx="636.30" cy="211.92" r="11.14" fill="#0F172A" />
<circle cx="692.45" cy="241.94" r="11.14" fill="#0F172A" />
<circle cx="763.07" cy="305.95" r="11.14" fill="#0F172A" />
<circle cx="798.45" cy="358.89" r="11.14" fill="#0F172A" />
<circle cx="822.81" cy="417.72" r="11.14" fill="#0F172A" />
<circle cx="835.24" cy="480.16" r="11.14" fill="#0F172A" />
<circle cx="878.56" cy="512.00" r="11.14" fill="#0F172A" />
<circle cx="872.99" cy="575.65" r="11.14" fill="#0F172A" />
<circle cx="856.45" cy="637.37" r="11.14" fill="#0F172A" />
<circle cx="829.45" cy="695.28" r="11.14" fill="#0F172A" />
<circle cx="771.20" cy="771.20" r="11.14" fill="#0F172A" />
<circle cx="722.25" cy="812.27" r="11.14" fill="#0F172A" />
<circle cx="666.91" cy="844.22" r="11.14" fill="#0F172A" />
<circle cx="606.87" cy="866.07" r="11.14" fill="#0F172A" />
<circle cx="575.65" cy="872.99" r="11.14" fill="#0F172A" />
<circle cx="512.00" cy="878.56" r="11.14" fill="#0F172A" />
<circle cx="448.35" cy="872.99" r="11.14" fill="#0F172A" />
<circle cx="386.63" cy="856.45" r="11.14" fill="#0F172A" />
<circle cx="301.75" cy="812.27" r="11.14" fill="#0F172A" />
<circle cx="252.80" cy="771.20" r="11.14" fill="#0F172A" />
<circle cx="211.73" cy="722.25" r="11.14" fill="#0F172A" />
<circle cx="179.78" cy="666.91" r="11.14" fill="#0F172A" />
<circle cx="167.55" cy="637.37" r="11.14" fill="#0F172A" />
<circle cx="151.01" cy="575.65" r="11.14" fill="#0F172A" />
<circle cx="145.44" cy="512.00" r="11.14" fill="#0F172A" />
<circle cx="151.01" cy="448.35" r="11.14" fill="#0F172A" />
<circle cx="179.78" cy="357.09" r="11.14" fill="#0F172A" />
<circle cx="211.73" cy="301.75" r="11.14" fill="#0F172A" />
<circle cx="252.80" cy="252.80" r="11.14" fill="#0F172A" />
<circle cx="301.75" cy="211.73" r="11.14" fill="#0F172A" />
<circle cx="328.72" cy="194.55" r="11.14" fill="#0F172A" />
<circle cx="386.63" cy="167.55" r="11.14" fill="#0F172A" />
<circle cx="448.35" cy="151.01" r="11.14" fill="#0F172A" />
<circle cx="512.00" cy="145.44" r="11.14" fill="#0F172A" />
<circle cx="575.65" cy="151.01" r="11.14" fill="#0F172A" />
<circle cx="606.87" cy="157.93" r="11.14" fill="#0F172A" />
<circle cx="637.37" cy="167.55" r="11.14" fill="#0F172A" />
<circle cx="771.20" cy="252.80" r="11.14" fill="#0F172A" />
<circle cx="829.45" cy="328.72" r="11.14" fill="#0F172A" />
<circle cx="844.22" cy="357.09" r="11.14" fill="#0F172A" />
<circle cx="856.45" cy="386.63" r="11.14" fill="#0F172A" />
<circle cx="877.17" cy="480.05" r="11.14" fill="#0F172A" />
<circle cx="900.34" cy="638.18" r="11.14" fill="#0F172A" />
<circle cx="875.82" cy="697.37" r="11.14" fill="#0F172A" />
<circle cx="860.15" cy="725.35" r="11.14" fill="#0F172A" />
<circle cx="842.34" cy="752.00" r="11.14" fill="#0F172A" />
<circle cx="800.73" cy="800.73" r="11.14" fill="#0F172A" />
<circle cx="752.00" cy="842.34" r="11.14" fill="#0F172A" />
<circle cx="544.04" cy="919.06" r="11.14" fill="#0F172A" />
<circle cx="416.68" cy="909.04" r="11.14" fill="#0F172A" />
<circle cx="355.74" cy="889.24" r="11.14" fill="#0F172A" />
<circle cx="326.63" cy="875.82" r="11.14" fill="#0F172A" />
<circle cx="298.65" cy="860.15" r="11.14" fill="#0F172A" />
<circle cx="272.00" cy="842.34" r="11.14" fill="#0F172A" />
<circle cx="223.27" cy="800.73" r="11.14" fill="#0F172A" />
<circle cx="201.51" cy="777.18" r="11.14" fill="#0F172A" />
<circle cx="163.85" cy="725.35" r="11.14" fill="#0F172A" />
<circle cx="123.66" cy="638.18" r="11.14" fill="#0F172A" />
<circle cx="104.94" cy="544.04" r="11.14" fill="#0F172A" />
<circle cx="108.71" cy="448.12" r="11.14" fill="#0F172A" />
<circle cx="114.96" cy="416.68" r="11.14" fill="#0F172A" />
<circle cx="134.76" cy="355.74" r="11.14" fill="#0F172A" />
<circle cx="163.85" cy="298.65" r="11.14" fill="#0F172A" />
<circle cx="201.51" cy="246.82" r="11.14" fill="#0F172A" />
<circle cx="223.27" cy="223.27" r="11.14" fill="#0F172A" />
<circle cx="246.82" cy="201.51" r="11.14" fill="#0F172A" />
<circle cx="272.00" cy="181.66" r="11.14" fill="#0F172A" />
<circle cx="298.65" cy="163.85" r="11.14" fill="#0F172A" />
<circle cx="326.63" cy="148.18" r="11.14" fill="#0F172A" />
<circle cx="479.96" cy="104.94" r="11.14" fill="#0F172A" />
<circle cx="512.00" cy="103.68" r="11.14" fill="#0F172A" />
<circle cx="544.04" cy="104.94" r="11.14" fill="#0F172A" />
<circle cx="607.32" cy="114.96" r="11.14" fill="#0F172A" />
<circle cx="668.26" cy="134.76" r="11.14" fill="#0F172A" />
<circle cx="725.35" cy="163.85" r="11.14" fill="#0F172A" />
<circle cx="800.73" cy="223.27" r="11.14" fill="#0F172A" />
<circle cx="822.49" cy="246.82" r="11.14" fill="#0F172A" />
<circle cx="860.15" cy="298.65" r="11.14" fill="#0F172A" />
<circle cx="875.82" cy="326.63" r="11.14" fill="#0F172A" />
<circle cx="889.24" cy="355.74" r="11.14" fill="#0F172A" />
<circle cx="900.34" cy="385.82" r="11.14" fill="#0F172A" />
<circle cx="919.06" cy="479.96" r="11.14" fill="#0F172A" />
</g>
</svg>